# xmcd
#
# Track frame offsets:
# 150
# 13070
# 27973
# 42150
# 56520
# 70100
# 81906
# 96303
# 109208
# 121137
# 134427
# 149086
# 162511
# 176144
# 188923
# 202518
# 217253
# 231273
# 242753
# 255860
# 267555
# 278523
# 294151
# 308026
# 319591
# 331707
#
# Disc length: 4603 seconds
#
#
# Revision: 0
# Processed by: cddbd v1.5.1PL2 Copyright (c) Steve Scherf et al.
# Submitted via: FreeRIP 2.945 
#
DISCID=7a11f91a
DTITLE=Variados - Boleristas Famosos Vol. 2
DYEAR=1900
DGENRE=Boleros
TTITLE0=Camino del Puente -Roberto Ledesma
TTITLE1=Lagrimas del Alma -Roberto Yanes
TTITLE2=Por Que ahora? -Vitin Aviles
TTITLE3=Sin sangre en las venas -Raul Marrero
TTITLE4=Que cosa te hice yo? -Los Hnos Arriagada
TTITLE5=Que quieres tu de mi? -Altemar Dutra
TTITLE6=Entre tu amor y mi amor -Felipe Pirela
TTITLE7=Amigo de que? - Orlando Contreras
TTITLE8=Copas y Amigos -Felipe Rodriguez
TTITLE9=Sigamos Pecando -Trio Vegabajeño
TTITLE10=Ya lo veras - Leo Marini
TTITLE11=Corazon, Corazon -Irizarri de Cordova
TTITLE12=Un imposible Amor -Gilberto Monroig
TTITLE13=Percal - Bienvenido Granda
TTITLE14=Temeridad -Olimpo Cardenas
TTITLE15=Nuestro Juramento -Julio Jaramillo
TTITLE16=Brujeria -Trio los Condes
TTITLE17=Sombras -Bowen Villafuerte
TTITLE18=Contraste -Odilio Gonzales
TTITLE19=Entrega Total -Javier Solis
TTITLE20=Hay que saber perder -Maria Luisa Landin
TTITLE21=Cien Años -Pedro Infante
TTITLE22=Con el sentimiento herido -Blanca Iris Villafañe
TTITLE23=Mala, Muy Mala -Fernando Valades
TTITLE24=La Copa Rota -Jose Feliciano
TTITLE25=Inolvidable -Julito Deschamps
EXTD=
EXTT0=
EXTT1=
EXTT2=
EXTT3=
EXTT4=
EXTT5=
EXTT6=
EXTT7=
EXTT8=
EXTT9=
EXTT10=
EXTT11=
EXTT12=
EXTT13=
EXTT14=
EXTT15=
EXTT16=
EXTT17=
EXTT18=
EXTT19=
EXTT20=
EXTT21=
EXTT22=
EXTT23=
EXTT24=
EXTT25=
PLAYORDER=
